<?xml version="1.0" encoding="utf-8"?>
<!-- Generator: Adobe Illustrator 22.1.0, SVG Export Plug-In . SVG Version: 6.00 Build 0)  -->
<svg version="1.1" xmlns="http://www.w3.org/2000/svg" xmlns:xlink="http://www.w3.org/1999/xlink" x="0px" y="0px"
	 viewBox="0 0 174.5 174.5" style="enable-background:new 0 0 174.5 174.5;" xml:space="preserve">
<style type="text/css">
	.st0{fill:#207243;}
	.st1{fill:#FFFFFF;}
</style>
<g id="Layer_3">
	<circle class="st0" cx="87.2" cy="87.2" r="87.2"/>
</g>
<g id="Layer_1">
	<g>
		<path class="st1" d="M67.9,84.2c-0.2-1.7-0.4-2.3-0.3-3C69.6,70.3,82.5,62,93,65c5.1,1.4,8.3,4.6,9.5,9.9c1.3,5.5,0.5,11-0.7,16.3
			c-2.1,9.1-4.8,18-6.9,27.1c-1.2,5.2-2.2,10.4-2.7,15.7c-0.4,5.2,0.9,5.9,5.7,4.4c2.9-0.9,6.4-2.4,8.5,0c2.4,2.8-0.3,6-1.8,8.6
			c-5.2,8.8-12.7,12-21.9,9.7c-6.6-1.6-9.6-6.4-11.1-12.3c-2.1-8.1-1.4-16.2,0.8-24.2c2.9-10.6,6.2-21.1,9.1-31.7
			c0.6-2.1,1.4-5.1,0.4-6.6c-1.6-2.4-4.6-0.7-6.9,0C72.8,82.6,70.6,83.3,67.9,84.2z"/>
		<path class="st1" d="M87.2,26.4c7.7,0.1,13.5,5.9,13.4,13.6c0,7.8-5.7,13.5-13.5,13.6c-8,0-13.8-5.9-13.7-13.9
			C73.5,32,79.4,26.4,87.2,26.4z"/>
	</g>
</g>
</svg>
