<svg xmlns="http://www.w3.org/2000/svg" viewBox="0 0 174.5 174.5"><style>.st1{fill:#fff}</style><circle cx="87.2" cy="87.2" r="87.2" fill="#819e43" id="Layer_3"/><g id="Layer_1"><path class="st1" d="M67.9 84.2c-.2-1.7-.4-2.3-.3-3C69.6 70.3 82.5 62 93 65c5.1 1.4 8.3 4.6 9.5 9.9 1.3 5.5.5 11-.7 16.3-2.1 9.1-4.8 18-6.9 27.1-1.2 5.2-2.2 10.4-2.7 15.7-.4 5.2.9 5.9 5.7 4.4 2.9-.9 6.4-2.4 8.5 0 2.4 2.8-.3 6-1.8 8.6-5.2 8.8-12.7 12-21.9 9.7-6.6-1.6-9.6-6.4-11.1-12.3-2.1-8.1-1.4-16.2.8-24.2 2.9-10.6 6.2-21.1 9.1-31.7.6-2.1 1.4-5.1.4-6.6-1.6-2.4-4.6-.7-6.9 0-2.2.7-4.4 1.4-7.1 2.3zM87.2 26.4c7.7.1 13.5 5.9 13.4 13.6 0 7.8-5.7 13.5-13.5 13.6-8 0-13.8-5.9-13.7-13.9.1-7.7 6-13.3 13.8-13.3z"/></g></svg>